<?xml version="1.0" encoding="UTF-8"?>
<svg xmlns="http://www.w3.org/2000/svg" xmlns:xlink="http://www.w3.org/1999/xlink" width="4761px" height="3369px" viewBox="0 0 4761 3369" version="1.1">
<g id="surface1">
<path style=" stroke:none;fill-rule:nonzero;fill:rgb(59.607846%,28.235295%,58.823532%);fill-opacity:1;" d="M 1085.707031 2039.621094 L 1085.707031 2104.269531 C 1095.625 2104.269531 1103.71875 2103.863281 1109.976562 2103.046875 C 1116.238281 2102.238281 1121.113281 2100.773438 1124.617188 2098.660156 C 1128.113281 2096.542969 1130.628906 2093.578125 1132.179688 2089.753906 C 1133.722656 2085.933594 1134.652344 2081.011719 1134.980469 2074.996094 L 1144.011719 2074.996094 L 1144.011719 2145.007812 L 1134.980469 2145.007812 C 1134.328125 2138.828125 1133.234375 2133.867188 1131.691406 2130.128906 C 1130.140625 2126.386719 1127.667969 2123.503906 1124.25 2121.46875 C 1120.835938 2119.4375 1116.035156 2117.972656 1109.855469 2117.078125 C 1103.671875 2116.183594 1095.625 2115.738281 1085.707031 2115.738281 L 1085.707031 2167.695312 C 1085.707031 2174.691406 1087.007812 2180.21875 1089.609375 2184.285156 C 1092.207031 2188.351562 1096.519531 2191.238281 1102.539062 2192.945312 C 1108.554688 2194.65625 1116.765625 2195.507812 1127.175781 2195.507812 C 1139.210938 2195.507812 1148.851562 2194.289062 1156.085938 2191.847656 C 1163.316406 2189.410156 1168.972656 2185.21875 1173.039062 2179.285156 C 1177.101562 2173.351562 1180.195312 2165.097656 1182.308594 2154.523438 L 1192.070312 2154.523438 L 1188.167969 2207.949219 L 1027.15625 2207.949219 L 1027.15625 2198.433594 C 1034.632812 2198.109375 1040.210938 2197.257812 1043.867188 2195.871094 C 1047.523438 2194.492188 1050.003906 2191.847656 1051.304688 2187.945312 C 1052.605469 2184.039062 1053.257812 2178.269531 1053.257812 2170.625 L 1053.257812 2057.429688 C 1053.257812 2049.785156 1052.691406 2044.050781 1051.550781 2040.226562 C 1050.410156 2036.410156 1048.175781 2033.765625 1044.84375 2032.300781 C 1041.507812 2030.835938 1036.507812 2029.945312 1029.839844 2029.617188 L 1029.839844 2020.105469 L 1179.875 2020.105469 L 1181.578125 2066.457031 L 1171.820312 2066.457031 C 1170.519531 2057.511719 1168.160156 2050.558594 1164.746094 2045.597656 C 1161.328125 2040.636719 1156.210938 2037.179688 1149.375 2035.226562 C 1142.546875 2033.277344 1133.4375 2032.300781 1122.054688 2032.300781 L 1093.511719 2032.300781 C 1090.253906 2032.300781 1088.144531 2032.789062 1087.167969 2033.765625 C 1086.191406 2034.742188 1085.707031 2036.691406 1085.707031 2039.621094 "/>
<path style=" stroke:none;fill-rule:nonzero;fill:rgb(59.607846%,28.235295%,58.823532%);fill-opacity:1;" d="M 1266.714844 2059.625 L 1307.210938 2167.453125 L 1342.339844 2078.410156 C 1345.761719 2069.789062 1348.28125 2063.082031 1349.90625 2058.285156 C 1351.527344 2053.484375 1352.628906 2049.785156 1353.195312 2047.179688 C 1353.765625 2044.585938 1354.050781 2042.226562 1354.050781 2040.109375 C 1354.050781 2036.042969 1352.628906 2033.277344 1349.785156 2031.8125 C 1346.9375 2030.347656 1341.367188 2029.617188 1333.074219 2029.617188 L 1333.074219 2020.105469 L 1399.183594 2020.105469 L 1399.183594 2029.617188 C 1392.191406 2029.945312 1386.535156 2031.652344 1382.230469 2034.742188 C 1377.921875 2037.832031 1374.378906 2042.710938 1371.621094 2049.375 L 1306.722656 2210.390625 L 1291.84375 2210.390625 L 1232.074219 2064.992188 C 1228.332031 2055.886719 1224.835938 2048.808594 1221.585938 2043.765625 C 1218.332031 2038.730469 1214.632812 2035.191406 1210.484375 2033.15625 C 1206.335938 2031.125 1201.261719 2030.027344 1195.242188 2029.863281 L 1195.242188 2020.105469 L 1283.308594 2020.105469 L 1283.308594 2029.863281 C 1274.683594 2030.027344 1268.914062 2030.835938 1265.984375 2032.300781 C 1263.054688 2033.765625 1261.59375 2036.289062 1261.59375 2039.863281 C 1261.59375 2041.980469 1261.996094 2044.621094 1262.8125 2047.792969 C 1263.625 2050.964844 1264.925781 2054.910156 1266.714844 2059.625 "/>
<path style=" stroke:none;fill-rule:nonzero;fill:rgb(59.607846%,28.235295%,58.823532%);fill-opacity:1;" d="M 1463.832031 2039.621094 L 1463.832031 2104.269531 C 1473.753906 2104.269531 1481.84375 2103.863281 1488.105469 2103.046875 C 1494.363281 2102.238281 1499.238281 2100.773438 1502.742188 2098.660156 C 1506.238281 2096.542969 1508.757812 2093.578125 1510.304688 2089.753906 C 1511.847656 2085.933594 1512.78125 2081.011719 1513.109375 2074.996094 L 1522.136719 2074.996094 L 1522.136719 2145.007812 L 1513.109375 2145.007812 C 1512.457031 2138.828125 1511.359375 2133.867188 1509.816406 2130.128906 C 1508.269531 2126.386719 1505.792969 2123.503906 1502.375 2121.46875 C 1498.960938 2119.4375 1494.160156 2117.972656 1487.980469 2117.078125 C 1481.796875 2116.183594 1473.753906 2115.738281 1463.832031 2115.738281 L 1463.832031 2167.695312 C 1463.832031 2174.691406 1465.132812 2180.21875 1467.734375 2184.285156 C 1470.332031 2188.351562 1474.644531 2191.238281 1480.664062 2192.945312 C 1486.679688 2194.65625 1494.890625 2195.507812 1505.300781 2195.507812 C 1517.335938 2195.507812 1526.976562 2194.289062 1534.210938 2191.847656 C 1541.445312 2189.410156 1547.101562 2185.21875 1551.164062 2179.285156 C 1555.226562 2173.351562 1558.320312 2165.097656 1560.4375 2154.523438 L 1570.195312 2154.523438 L 1566.292969 2207.949219 L 1405.285156 2207.949219 L 1405.285156 2198.433594 C 1412.761719 2198.109375 1418.335938 2197.257812 1421.992188 2195.871094 C 1425.648438 2194.492188 1428.128906 2191.847656 1429.433594 2187.945312 C 1430.730469 2184.039062 1431.382812 2178.269531 1431.382812 2170.625 L 1431.382812 2057.429688 C 1431.382812 2049.785156 1430.816406 2044.050781 1429.675781 2040.226562 C 1428.535156 2036.410156 1426.300781 2033.765625 1422.96875 2032.300781 C 1419.632812 2030.835938 1414.632812 2029.945312 1407.964844 2029.617188 L 1407.964844 2020.105469 L 1558 2020.105469 L 1559.703125 2066.457031 L 1549.949219 2066.457031 C 1548.644531 2057.511719 1546.289062 2050.558594 1542.871094 2045.597656 C 1539.457031 2040.636719 1534.335938 2037.179688 1527.5 2035.226562 C 1520.671875 2033.277344 1511.5625 2032.300781 1500.179688 2032.300781 L 1471.636719 2032.300781 C 1468.378906 2032.300781 1466.273438 2032.789062 1465.292969 2033.765625 C 1464.316406 2034.742188 1463.832031 2036.691406 1463.832031 2039.621094 "/>
<path style=" stroke:none;fill-rule:nonzero;fill:rgb(59.607846%,28.235295%,58.823532%);fill-opacity:1;" d="M 1647.289062 2037.183594 L 1647.289062 2106.707031 L 1663.632812 2106.707031 C 1679.078125 2106.707031 1690.667969 2103.703125 1698.394531 2097.683594 C 1706.117188 2091.664062 1709.984375 2081.90625 1709.984375 2068.40625 C 1709.984375 2057.1875 1706.847656 2048.484375 1700.59375 2042.300781 C 1694.328125 2036.125 1685.261719 2033.035156 1673.390625 2033.035156 L 1651.675781 2033.035156 C 1648.746094 2033.035156 1647.289062 2034.417969 1647.289062 2037.183594 M 1746.089844 2067.1875 C 1746.089844 2080.527344 1742.1875 2091.664062 1734.378906 2100.609375 C 1726.570312 2109.554688 1714.132812 2115.574219 1697.054688 2118.660156 L 1752.921875 2183.554688 C 1756.980469 2188.273438 1761.699219 2191.808594 1767.066406 2194.164062 C 1772.433594 2196.527344 1778.125 2197.949219 1784.144531 2198.433594 L 1784.144531 2207.949219 L 1729.742188 2207.949219 L 1669.484375 2133.054688 C 1666.878906 2129.636719 1664.402344 2127.039062 1662.042969 2125.246094 C 1659.683594 2123.460938 1657.367188 2122.242188 1655.09375 2121.585938 C 1652.816406 2120.941406 1650.210938 2120.613281 1647.289062 2120.613281 L 1647.289062 2169.40625 C 1647.289062 2177.375 1648.101562 2183.472656 1649.726562 2187.703125 C 1651.351562 2191.933594 1654.644531 2194.773438 1659.609375 2196.238281 C 1664.566406 2197.703125 1672.089844 2198.433594 1682.171875 2198.433594 L 1682.171875 2207.949219 L 1588.738281 2207.949219 L 1588.738281 2198.433594 C 1596.054688 2198.273438 1601.578125 2197.457031 1605.328125 2195.992188 C 1609.0625 2194.53125 1611.585938 2191.847656 1612.886719 2187.945312 C 1614.1875 2184.042969 1614.839844 2178.269531 1614.839844 2170.625 L 1614.839844 2057.429688 C 1614.839844 2049.785156 1614.3125 2044.054688 1613.257812 2040.230469 C 1612.195312 2036.410156 1610 2033.765625 1606.667969 2032.300781 C 1603.332031 2030.839844 1598.253906 2029.945312 1591.421875 2029.617188 L 1591.421875 2020.105469 L 1673.390625 2020.105469 C 1696.324219 2020.105469 1714.167969 2024.25 1726.941406 2032.546875 C 1739.703125 2040.839844 1746.089844 2052.386719 1746.089844 2067.1875 "/>
<path style=" stroke:none;fill-rule:nonzero;fill:rgb(59.607846%,28.235295%,58.823532%);fill-opacity:1;" d="M 1816.105469 2207.949219 L 1816.105469 2198.433594 C 1823.261719 2198.433594 1828.707031 2197.582031 1832.449219 2195.875 C 1836.191406 2194.164062 1838.75 2190.832031 1840.132812 2185.875 C 1841.511719 2180.914062 1842.210938 2173.394531 1842.210938 2163.304688 L 1842.210938 2138.421875 L 1792.199219 2050.601562 C 1788.941406 2044.910156 1786.011719 2040.558594 1783.417969 2037.550781 C 1780.808594 2034.539062 1778.003906 2032.464844 1774.996094 2031.324219 C 1771.984375 2030.191406 1768.289062 2029.617188 1763.898438 2029.617188 L 1763.898438 2020.105469 L 1844.160156 2020.105469 L 1844.160156 2029.617188 C 1837 2029.617188 1831.921875 2030.269531 1828.914062 2031.570312 C 1825.902344 2032.875 1824.398438 2034.90625 1824.398438 2037.667969 C 1824.398438 2039.296875 1824.890625 2041.289062 1825.863281 2043.644531 C 1826.835938 2046.003906 1828.386719 2048.972656 1830.496094 2052.550781 L 1866.363281 2118.664062 L 1867.335938 2118.664062 L 1896.855469 2068.894531 C 1902.222656 2059.953125 1905.957031 2053.160156 1908.078125 2048.523438 C 1910.1875 2043.890625 1911.246094 2040.191406 1911.246094 2037.425781 C 1911.246094 2034.496094 1910.03125 2032.464844 1907.585938 2031.324219 C 1905.148438 2030.191406 1900.671875 2029.617188 1894.167969 2029.617188 L 1894.167969 2020.105469 L 1953.699219 2020.105469 L 1953.699219 2029.617188 C 1950.117188 2029.617188 1946.902344 2030.230469 1944.058594 2031.445312 C 1941.210938 2032.667969 1938.285156 2034.785156 1935.277344 2037.789062 C 1932.265625 2040.800781 1928.847656 2045.191406 1925.03125 2050.964844 C 1921.207031 2056.738281 1916.53125 2064.261719 1911.003906 2073.535156 L 1874.898438 2135.25 L 1874.898438 2161.597656 C 1874.898438 2172.332031 1875.546875 2180.300781 1876.847656 2185.503906 C 1878.148438 2190.714844 1880.628906 2194.164062 1884.289062 2195.875 C 1887.949219 2197.582031 1893.359375 2198.433594 1900.511719 2198.433594 L 1900.511719 2207.949219 Z M 1816.105469 2207.949219 "/>
<path style=" stroke:none;fill-rule:nonzero;fill:rgb(59.607846%,28.235295%,58.823532%);fill-opacity:1;" d="M 2130.078125 2210.386719 L 2061.523438 2049.378906 L 2060.546875 2049.378906 L 2060.546875 2161.59375 C 2060.546875 2172.332031 2061.195312 2180.257812 2062.496094 2185.382812 C 2063.796875 2190.507812 2066.40625 2193.882812 2070.304688 2195.507812 C 2074.207031 2197.136719 2080.144531 2198.109375 2088.117188 2198.4375 L 2088.117188 2207.949219 L 2015.171875 2207.949219 L 2015.171875 2198.4375 C 2023.140625 2198.109375 2029.078125 2197.136719 2032.984375 2195.507812 C 2036.882812 2193.882812 2039.523438 2190.628906 2040.910156 2185.746094 C 2042.289062 2180.867188 2042.984375 2173.390625 2042.984375 2163.308594 L 2042.984375 2064.746094 C 2042.984375 2055.476562 2042.371094 2048.367188 2041.152344 2043.398438 C 2039.933594 2038.441406 2037.53125 2034.945312 2033.957031 2032.910156 C 2030.375 2030.878906 2024.933594 2029.78125 2017.613281 2029.617188 L 2017.613281 2020.105469 L 2086.652344 2020.105469 L 2144.957031 2163.058594 L 2145.933594 2163.058594 L 2204.480469 2020.105469 L 2270.59375 2020.105469 L 2270.59375 2029.617188 C 2263.433594 2029.78125 2258.070312 2030.878906 2254.492188 2032.910156 C 2250.914062 2034.945312 2248.550781 2038.5625 2247.417969 2043.769531 C 2246.28125 2048.976562 2245.710938 2056.535156 2245.710938 2066.457031 L 2245.710938 2161.59375 C 2245.710938 2172.332031 2246.320312 2180.257812 2247.539062 2185.382812 C 2248.761719 2190.507812 2251.355469 2193.882812 2255.34375 2195.507812 C 2259.328125 2197.136719 2265.226562 2198.109375 2273.035156 2198.4375 L 2273.035156 2207.949219 L 2185.453125 2207.949219 L 2185.453125 2198.4375 C 2193.421875 2198.109375 2199.355469 2197.136719 2203.261719 2195.507812 C 2207.164062 2193.882812 2209.765625 2190.628906 2211.070312 2185.746094 C 2212.367188 2180.867188 2213.019531 2173.390625 2213.019531 2163.308594 L 2213.019531 2049.378906 L 2211.558594 2049.378906 L 2143.980469 2210.386719 Z M 2130.078125 2210.386719 "/>
<path style=" stroke:none;fill-rule:nonzero;fill:rgb(59.607846%,28.235295%,58.823532%);fill-opacity:1;" d="M 2291.085938 2207.949219 L 2291.085938 2198.433594 C 2298.566406 2198.109375 2304.136719 2197.132812 2307.796875 2195.503906 C 2311.457031 2193.882812 2313.894531 2190.628906 2315.113281 2185.75 C 2316.332031 2180.871094 2316.945312 2173.394531 2316.945312 2163.304688 L 2316.945312 2064.75 C 2316.945312 2055.476562 2316.414062 2048.40625 2315.359375 2043.519531 C 2314.296875 2038.644531 2312.066406 2035.191406 2308.648438 2033.15625 C 2305.234375 2031.125 2300.191406 2029.945312 2293.527344 2029.617188 L 2293.527344 2020.105469 L 2373.054688 2020.105469 L 2373.054688 2029.617188 C 2366.382812 2029.945312 2361.347656 2031.125 2357.929688 2033.15625 C 2354.515625 2035.191406 2352.273438 2038.683594 2351.21875 2043.644531 C 2350.160156 2048.609375 2349.632812 2055.886719 2349.632812 2065.480469 L 2349.632812 2162.574219 C 2349.632812 2172.984375 2350.242188 2180.664062 2351.464844 2185.625 C 2352.683594 2190.589844 2355.125 2193.882812 2358.78125 2195.503906 C 2362.441406 2197.132812 2368.011719 2198.109375 2375.492188 2198.433594 L 2375.492188 2207.949219 Z M 2291.085938 2207.949219 "/>
<path style=" stroke:none;fill-rule:nonzero;fill:rgb(59.607846%,28.235295%,58.823532%);fill-opacity:1;" d="M 2394.519531 2207.949219 L 2394.519531 2198.433594 C 2401.996094 2198.109375 2407.609375 2197.257812 2411.351562 2195.875 C 2415.09375 2194.492188 2417.574219 2191.847656 2418.792969 2187.945312 C 2420.011719 2184.042969 2420.625 2178.269531 2420.625 2170.625 L 2420.625 2057.429688 C 2420.625 2049.785156 2420.054688 2044.054688 2418.914062 2040.230469 C 2417.773438 2036.410156 2415.539062 2033.765625 2412.207031 2032.300781 C 2408.875 2030.835938 2403.867188 2029.945312 2397.199219 2029.617188 L 2397.199219 2020.105469 L 2478.191406 2020.105469 L 2478.191406 2029.617188 C 2470.878906 2029.78125 2465.46875 2030.636719 2461.972656 2032.175781 C 2458.472656 2033.730469 2456.117188 2036.535156 2454.898438 2040.597656 C 2453.675781 2044.660156 2453.070312 2050.839844 2453.070312 2059.136719 L 2453.070312 2162.328125 C 2453.070312 2171.441406 2454.410156 2178.351562 2457.09375 2183.066406 C 2459.777344 2187.785156 2464.292969 2190.996094 2470.632812 2192.703125 C 2476.976562 2194.410156 2485.761719 2195.265625 2496.980469 2195.265625 C 2509.5 2195.265625 2519.460938 2194.164062 2526.863281 2191.96875 C 2534.265625 2189.773438 2539.957031 2185.789062 2543.941406 2180.015625 C 2547.925781 2174.246094 2551.136719 2165.910156 2553.578125 2155.011719 L 2563.09375 2155.011719 L 2559.1875 2207.949219 Z M 2394.519531 2207.949219 "/>
<path style=" stroke:none;fill-rule:nonzero;fill:rgb(59.607846%,28.235295%,58.823532%);fill-opacity:1;" d="M 2635.054688 2039.621094 L 2635.054688 2104.269531 C 2644.976562 2104.269531 2653.066406 2103.863281 2659.328125 2103.046875 C 2665.585938 2102.238281 2670.464844 2100.773438 2673.96875 2098.660156 C 2677.464844 2096.542969 2679.980469 2093.578125 2681.527344 2089.753906 C 2683.070312 2085.933594 2684.003906 2081.011719 2684.332031 2074.996094 L 2693.359375 2074.996094 L 2693.359375 2145.007812 L 2684.332031 2145.007812 C 2683.679688 2138.828125 2682.582031 2133.867188 2681.039062 2130.128906 C 2679.492188 2126.386719 2677.015625 2123.503906 2673.597656 2121.46875 C 2670.183594 2119.4375 2665.382812 2117.972656 2659.203125 2117.078125 C 2653.023438 2116.183594 2644.976562 2115.738281 2635.054688 2115.738281 L 2635.054688 2167.695312 C 2635.054688 2174.691406 2636.355469 2180.21875 2638.960938 2184.285156 C 2641.554688 2188.351562 2645.867188 2191.238281 2651.886719 2192.945312 C 2657.902344 2194.65625 2666.117188 2195.507812 2676.523438 2195.507812 C 2688.558594 2195.507812 2698.199219 2194.289062 2705.4375 2191.847656 C 2712.667969 2189.410156 2718.324219 2185.21875 2722.386719 2179.285156 C 2726.453125 2173.351562 2729.542969 2165.097656 2731.660156 2154.523438 L 2741.417969 2154.523438 L 2737.515625 2207.949219 L 2576.507812 2207.949219 L 2576.507812 2198.433594 C 2583.984375 2198.109375 2589.554688 2197.257812 2593.214844 2195.871094 C 2596.871094 2194.492188 2599.351562 2191.847656 2600.65625 2187.945312 C 2601.957031 2184.039062 2602.609375 2178.269531 2602.609375 2170.625 L 2602.609375 2057.429688 C 2602.609375 2049.785156 2602.039062 2044.050781 2600.898438 2040.226562 C 2599.757812 2036.410156 2597.523438 2033.765625 2594.191406 2032.300781 C 2590.855469 2030.835938 2585.855469 2029.945312 2579.1875 2029.617188 L 2579.1875 2020.105469 L 2729.222656 2020.105469 L 2730.925781 2066.457031 L 2721.171875 2066.457031 C 2719.867188 2057.511719 2717.511719 2050.558594 2714.09375 2045.597656 C 2710.679688 2040.636719 2705.558594 2037.179688 2698.722656 2035.226562 C 2691.894531 2033.277344 2682.789062 2032.300781 2671.402344 2032.300781 L 2642.859375 2032.300781 C 2639.605469 2032.300781 2637.496094 2032.789062 2636.515625 2033.765625 C 2635.539062 2034.742188 2635.054688 2036.691406 2635.054688 2039.621094 "/>
<path style=" stroke:none;fill-rule:nonzero;fill:rgb(59.607846%,28.235295%,58.823532%);fill-opacity:1;" d="M 2767.765625 2206.972656 L 2764.105469 2147.203125 L 2773.621094 2147.203125 C 2775.894531 2162.328125 2782.074219 2174.285156 2792.164062 2183.0625 C 2802.246094 2191.847656 2814.605469 2196.238281 2829.242188 2196.238281 C 2841.4375 2196.238281 2851.203125 2193.433594 2858.519531 2187.824219 C 2865.835938 2182.214844 2869.496094 2174.769531 2869.496094 2165.503906 C 2869.496094 2160.296875 2868.277344 2155.785156 2865.835938 2151.960938 C 2863.398438 2148.140625 2858.960938 2144.398438 2852.542969 2140.738281 C 2846.113281 2137.082031 2836.808594 2132.894531 2824.609375 2128.175781 C 2811.757812 2122.804688 2801.269531 2117.28125 2793.140625 2111.585938 C 2785.003906 2105.894531 2779.070312 2099.550781 2775.328125 2092.558594 C 2771.585938 2085.566406 2769.71875 2077.84375 2769.71875 2069.382812 C 2769.71875 2059.132812 2772.195312 2050.152344 2777.160156 2042.425781 C 2782.117188 2034.703125 2788.992188 2028.640625 2797.773438 2024.25 C 2806.554688 2019.859375 2816.640625 2017.664062 2828.023438 2017.664062 C 2843.476562 2017.664062 2857.867188 2022.707031 2871.207031 2032.789062 L 2876.328125 2021.078125 L 2881.9375 2021.078125 L 2884.621094 2072.554688 L 2875.351562 2072.554688 C 2871.445312 2059.222656 2865.472656 2049.097656 2857.421875 2042.183594 C 2849.371094 2035.269531 2839.976562 2031.8125 2829.242188 2031.8125 C 2819.324219 2031.8125 2811.269531 2034.292969 2805.089844 2039.253906 C 2798.910156 2044.21875 2795.824219 2050.597656 2795.824219 2058.402344 C 2795.824219 2063.121094 2796.957031 2067.269531 2799.238281 2070.847656 C 2801.515625 2074.425781 2805.578125 2077.882812 2811.433594 2081.214844 C 2817.289062 2084.550781 2825.503906 2088.332031 2836.074219 2092.558594 C 2851.523438 2098.742188 2863.886719 2104.921875 2873.15625 2111.097656 C 2882.425781 2117.28125 2889.089844 2123.871094 2893.160156 2130.859375 C 2897.222656 2137.855469 2899.257812 2145.828125 2899.257812 2154.765625 C 2899.257812 2165.667969 2896.285156 2175.300781 2890.355469 2183.679688 C 2884.417969 2192.054688 2876.117188 2198.597656 2865.472656 2203.3125 C 2854.816406 2208.027344 2842.578125 2210.386719 2828.753906 2210.386719 C 2819.160156 2210.386719 2810.5 2209.046875 2802.773438 2206.363281 C 2795.050781 2203.683594 2787.199219 2199.332031 2779.234375 2193.308594 L 2773.621094 2206.972656 Z M 2767.765625 2206.972656 "/>
<path style=" stroke:none;fill-rule:nonzero;fill:rgb(59.607846%,28.235295%,58.823532%);fill-opacity:1;" d="M 3103.207031 2020.105469 L 3105.644531 2071.578125 L 3095.402344 2071.578125 C 3094.582031 2061.167969 3092.628906 2053.121094 3089.546875 2047.425781 C 3086.453125 2041.734375 3082.023438 2037.753906 3076.25 2035.472656 C 3070.472656 2033.195312 3063.035156 2032.058594 3053.929688 2032.058594 C 3045.628906 2032.058594 3039.449219 2032.265625 3035.390625 2032.667969 C 3031.316406 2033.074219 3028.636719 2033.847656 3027.339844 2034.984375 C 3026.035156 2036.125 3025.386719 2037.667969 3025.386719 2039.621094 L 3025.386719 2168.429688 C 3025.386719 2175.425781 3026.117188 2181.078125 3027.582031 2185.382812 C 3029.042969 2189.695312 3032.09375 2192.863281 3036.730469 2194.898438 C 3041.363281 2196.933594 3048.394531 2198.109375 3057.832031 2198.433594 L 3057.832031 2207.949219 L 2959.027344 2207.949219 L 2959.027344 2198.433594 C 2968.621094 2198.109375 2975.742188 2196.933594 2980.375 2194.898438 C 2985.011719 2192.863281 2988.0625 2189.695312 2989.527344 2185.382812 C 2990.984375 2181.078125 2991.71875 2175.425781 2991.71875 2168.429688 L 2991.71875 2039.621094 C 2991.71875 2037.667969 2991.144531 2036.125 2990.011719 2034.984375 C 2988.871094 2033.847656 2986.554688 2033.074219 2983.058594 2032.667969 C 2979.558594 2032.265625 2974.234375 2032.058594 2967.078125 2032.058594 C 2961.0625 2032.058594 2955.371094 2032.386719 2950.003906 2033.035156 C 2944.632812 2033.683594 2939.914062 2035.230469 2935.855469 2037.667969 C 2931.785156 2040.109375 2928.535156 2044.011719 2926.09375 2049.378906 C 2923.65625 2054.746094 2922.269531 2062.148438 2921.945312 2071.578125 L 2912.679688 2071.578125 L 2914.382812 2020.105469 Z M 3103.207031 2020.105469 "/>
<path style=" stroke:none;fill-rule:nonzero;fill:rgb(59.607846%,28.235295%,58.823532%);fill-opacity:1;" d="M 3222.738281 2195.261719 C 3235.910156 2195.261719 3247.253906 2192.050781 3256.769531 2185.628906 C 3266.285156 2179.203125 3273.683594 2170.054688 3278.972656 2158.183594 C 3284.253906 2146.3125 3286.898438 2132.324219 3286.898438 2116.21875 C 3286.898438 2099.144531 3284.296875 2084.347656 3279.089844 2071.820312 C 3273.882812 2059.300781 3266.488281 2049.664062 3256.890625 2042.914062 C 3247.292969 2036.167969 3235.828125 2032.792969 3222.492188 2032.792969 C 3209.324219 2032.792969 3197.933594 2036.167969 3188.339844 2042.914062 C 3178.742188 2049.664062 3171.34375 2059.300781 3166.140625 2071.820312 C 3160.933594 2084.347656 3158.335938 2099.144531 3158.335938 2116.21875 C 3158.335938 2132.324219 3160.933594 2146.3125 3166.140625 2158.183594 C 3171.34375 2170.054688 3178.742188 2179.203125 3188.339844 2185.628906 C 3197.933594 2192.050781 3209.398438 2195.261719 3222.738281 2195.261719 M 3222.492188 2017.664062 C 3236.96875 2017.664062 3250.46875 2020.148438 3262.992188 2025.105469 C 3275.511719 2030.066406 3286.492188 2036.976562 3295.921875 2045.84375 C 3305.355469 2054.707031 3312.714844 2065.074219 3318.003906 2076.945312 C 3323.289062 2088.820312 3325.929688 2101.667969 3325.929688 2115.488281 C 3325.929688 2128.664062 3323.289062 2141.023438 3318.003906 2152.570312 C 3312.714844 2164.121094 3305.355469 2174.203125 3295.921875 2182.820312 C 3286.492188 2191.445312 3275.511719 2198.191406 3262.992188 2203.066406 C 3250.46875 2207.949219 3236.96875 2210.386719 3222.492188 2210.386719 C 3208.179688 2210.386719 3194.761719 2207.949219 3182.242188 2203.066406 C 3169.714844 2198.191406 3158.738281 2191.445312 3149.308594 2182.820312 C 3139.871094 2174.203125 3132.511719 2164.121094 3127.226562 2152.570312 C 3121.9375 2141.023438 3119.300781 2128.664062 3119.300781 2115.488281 C 3119.300781 2101.667969 3121.9375 2088.820312 3127.226562 2076.945312 C 3132.511719 2065.074219 3139.832031 2054.707031 3149.1875 2045.84375 C 3158.535156 2036.976562 3169.472656 2030.066406 3182 2025.105469 C 3194.519531 2020.148438 3208.015625 2017.664062 3222.492188 2017.664062 "/>
<path style=" stroke:none;fill-rule:nonzero;fill:rgb(59.607846%,28.235295%,58.823532%);fill-opacity:1;" d="M 3499.871094 2210.386719 L 3389.121094 2056.941406 L 3388.140625 2056.941406 L 3388.140625 2161.59375 C 3388.140625 2172.332031 3388.753906 2180.257812 3389.96875 2185.382812 C 3391.191406 2190.507812 3393.589844 2193.882812 3397.167969 2195.507812 C 3400.746094 2197.136719 3406.109375 2198.109375 3413.269531 2198.4375 L 3413.269531 2207.949219 L 3343.011719 2207.949219 L 3343.011719 2198.4375 C 3350.816406 2198.109375 3356.671875 2197.136719 3360.574219 2195.507812 C 3364.476562 2193.882812 3367.121094 2190.628906 3368.5 2185.746094 C 3369.886719 2180.867188 3370.578125 2173.390625 3370.578125 2163.308594 L 3370.578125 2064.746094 C 3370.578125 2055.476562 3370.007812 2048.402344 3368.867188 2043.523438 C 3367.730469 2038.648438 3365.332031 2035.191406 3361.671875 2033.15625 C 3358.011719 2031.125 3352.605469 2029.945312 3345.449219 2029.617188 L 3345.449219 2020.105469 L 3407.167969 2020.105469 L 3508.164062 2161.59375 L 3509.144531 2161.59375 L 3509.144531 2066.457031 C 3509.144531 2055.722656 3508.53125 2047.792969 3507.316406 2042.667969 C 3506.09375 2037.546875 3503.734375 2034.132812 3500.238281 2032.421875 C 3496.742188 2030.714844 3491.335938 2029.78125 3484.015625 2029.617188 L 3484.015625 2020.105469 L 3554.277344 2020.105469 L 3554.277344 2029.617188 C 3546.46875 2029.78125 3540.613281 2030.714844 3536.710938 2032.421875 C 3532.808594 2034.132812 3530.160156 2037.421875 3528.785156 2042.304688 C 3527.398438 2047.183594 3526.707031 2054.667969 3526.707031 2064.746094 L 3526.707031 2210.386719 Z M 3499.871094 2210.386719 "/>
<path style=" stroke:none;fill-rule:nonzero;fill:rgb(59.607846%,28.235295%,58.823532%);fill-opacity:1;" d="M 3628.683594 2039.621094 L 3628.683594 2104.269531 C 3638.601562 2104.269531 3646.695312 2103.863281 3652.953125 2103.046875 C 3659.21875 2102.238281 3664.09375 2100.773438 3667.597656 2098.660156 C 3671.089844 2096.542969 3673.609375 2093.578125 3675.152344 2089.753906 C 3676.703125 2085.933594 3677.628906 2081.011719 3677.957031 2074.996094 L 3686.988281 2074.996094 L 3686.988281 2145.007812 L 3677.957031 2145.007812 C 3677.308594 2138.828125 3676.210938 2133.867188 3674.671875 2130.128906 C 3673.121094 2126.386719 3670.640625 2123.503906 3667.226562 2121.46875 C 3663.8125 2119.4375 3659.011719 2117.972656 3652.828125 2117.078125 C 3646.644531 2116.183594 3638.601562 2115.738281 3628.683594 2115.738281 L 3628.683594 2167.695312 C 3628.683594 2174.691406 3629.980469 2180.21875 3632.585938 2184.285156 C 3635.183594 2188.351562 3639.492188 2191.238281 3645.515625 2192.945312 C 3651.53125 2194.65625 3659.742188 2195.507812 3670.152344 2195.507812 C 3682.1875 2195.507812 3691.824219 2194.289062 3699.0625 2191.847656 C 3706.296875 2189.410156 3711.949219 2185.21875 3716.019531 2179.285156 C 3720.082031 2173.351562 3723.175781 2165.097656 3725.285156 2154.523438 L 3735.046875 2154.523438 L 3731.140625 2207.949219 L 3570.132812 2207.949219 L 3570.132812 2198.433594 C 3577.609375 2198.109375 3583.183594 2197.257812 3586.84375 2195.871094 C 3590.496094 2194.492188 3592.976562 2191.847656 3594.28125 2187.945312 C 3595.582031 2184.039062 3596.234375 2178.269531 3596.234375 2170.625 L 3596.234375 2057.429688 C 3596.234375 2049.785156 3595.660156 2044.050781 3594.527344 2040.226562 C 3593.386719 2036.410156 3591.148438 2033.765625 3587.816406 2032.300781 C 3584.480469 2030.835938 3579.476562 2029.945312 3572.8125 2029.617188 L 3572.8125 2020.105469 L 3722.851562 2020.105469 L 3724.554688 2066.457031 L 3714.800781 2066.457031 C 3713.492188 2057.511719 3711.140625 2050.558594 3707.722656 2045.597656 C 3704.304688 2040.636719 3699.1875 2037.179688 3692.351562 2035.226562 C 3685.527344 2033.277344 3676.414062 2032.300781 3665.03125 2032.300781 L 3636.484375 2032.300781 C 3633.230469 2032.300781 3631.121094 2032.789062 3630.140625 2033.765625 C 3629.164062 2034.742188 3628.683594 2036.691406 3628.683594 2039.621094 "/>
<path style=" stroke:none;fill-rule:nonzero;fill:rgb(59.607846%,28.235295%,58.823532%);fill-opacity:1;" d="M 1944.746094 1049.292969 C 1942.761719 1049.292969 1940.753906 1048.730469 1938.976562 1047.554688 C 1910.339844 1028.683594 1883.972656 1006.789062 1902.910156 965.285156 C 1909.464844 950.921875 1919.351562 941.503906 1932.296875 937.277344 C 1954.054688 930.171875 1978.863281 940.050781 1995.835938 949.585938 C 2000.894531 952.425781 2002.691406 958.832031 1999.847656 963.890625 C 1997.011719 968.945312 1990.601562 970.761719 1985.546875 967.90625 C 1966.734375 957.339844 1950.140625 953.558594 1938.816406 957.253906 C 1931.589844 959.613281 1926.097656 965.09375 1922.03125 974.007812 C 1911.777344 996.46875 1917.90625 1008.507812 1950.539062 1030.011719 C 1955.382812 1033.207031 1956.722656 1039.722656 1953.53125 1044.566406 C 1951.511719 1047.628906 1948.160156 1049.292969 1944.746094 1049.292969 "/>
<path style=" stroke:none;fill-rule:nonzero;fill:rgb(59.607846%,28.235295%,58.823532%);fill-opacity:1;" d="M 2863.847656 1839.898438 C 2834.5 1839.898438 2804.808594 1838.542969 2782.117188 1834.90625 C 2762.773438 1831.8125 2740.269531 1826.195312 2737.910156 1810.15625 C 2735.613281 1794.515625 2743.09375 1764.238281 2751.753906 1729.179688 C 2758.621094 1701.398438 2769.921875 1655.675781 2766.429688 1644.15625 C 2756.457031 1643.351562 2734.761719 1648.222656 2711.867188 1653.339844 C 2674.097656 1661.789062 2627.25 1672.359375 2580.019531 1672.058594 C 2527.496094 1671.785156 2491.066406 1660.828125 2466.957031 1653.578125 C 2460.292969 1651.570312 2452.964844 1649.367188 2448.511719 1648.582031 C 2447.058594 1655.308594 2445.886719 1669.214844 2444.914062 1680.800781 C 2440.660156 1731.277344 2434.238281 1807.5625 2388.078125 1818.335938 C 2339.316406 1829.703125 2180.261719 1840.839844 2158.519531 1798.648438 C 2138.828125 1760.417969 2187.570312 1536.589844 2201.09375 1507.460938 C 2203.53125 1502.203125 2209.773438 1499.914062 2215.042969 1502.359375 C 2220.308594 1504.804688 2222.597656 1511.050781 2220.148438 1516.316406 C 2206.191406 1546.375 2163.398438 1762.222656 2177.203125 1789.023438 C 2188.503906 1810.953125 2316.550781 1813.441406 2383.304688 1797.867188 C 2414.582031 1790.570312 2420.460938 1720.75 2423.976562 1679.035156 C 2426.8125 1645.332031 2427.988281 1631.378906 2439.5 1628.09375 C 2447.546875 1625.800781 2457.128906 1628.675781 2473.003906 1633.453125 C 2495.960938 1640.359375 2530.640625 1650.789062 2580.128906 1651.046875 C 2624.6875 1651.402344 2670.535156 1641.050781 2707.277344 1632.835938 C 2737.417969 1626.089844 2759.183594 1621.230469 2772.351562 1623.777344 C 2777.046875 1624.695312 2780.949219 1627.390625 2783.625 1631.589844 C 2793.15625 1646.523438 2785.476562 1680.316406 2772.15625 1734.222656 C 2765.234375 1762.226562 2757.414062 1793.871094 2758.589844 1806.167969 C 2764.65625 1811.941406 2802.296875 1820.160156 2881.128906 1818.746094 C 2949.003906 1817.535156 2997.140625 1810.410156 3006.8125 1805.613281 C 3031.636719 1752.570312 3083.238281 1491.695312 3045.917969 1281.949219 C 3044.980469 1276.695312 3048.136719 1271.574219 3053.25 1270.046875 C 3058.378906 1268.503906 3063.8125 1271.074219 3065.917969 1275.976562 C 3081.546875 1312.453125 3132.710938 1389.859375 3150.039062 1395.828125 C 3150.316406 1395.09375 3150.648438 1393.980469 3150.941406 1392.351562 C 3164.722656 1315.90625 3070.382812 1126.453125 2932.574219 1046.1875 C 2709.261719 916.117188 2391.410156 950.582031 2238.648438 967.140625 C 2168.863281 974.707031 2155.523438 975.824219 2149.203125 966.054688 C 2148.484375 964.9375 2147.980469 963.691406 2147.722656 962.386719 C 2135.527344 900.546875 2108.175781 894.382812 2083.007812 896.449219 C 2072.074219 897.363281 2064.027344 901.160156 2058.410156 908.058594 C 2042.25 927.914062 2047.351562 969.792969 2051.082031 1000.375 L 2051.371094 1002.789062 C 2052.070312 1008.550781 2047.96875 1013.785156 2042.207031 1014.488281 C 2036.480469 1015.167969 2031.214844 1011.085938 2030.507812 1005.324219 L 2030.21875 1002.914062 C 2026.035156 968.589844 2020.308594 921.578125 2042.113281 894.792969 C 2051.398438 883.386719 2064.570312 876.898438 2081.265625 875.511719 C 2126.457031 871.703125 2154.542969 896.816406 2167.027344 952.105469 C 2178.089844 952.566406 2206.488281 949.488281 2236.382812 946.246094 C 2391.367188 929.4375 2713.859375 894.476562 2943.148438 1028.027344 C 3090.433594 1113.816406 3186.761719 1312.105469 3171.621094 1396.078125 C 3168.585938 1412.898438 3159.039062 1416.441406 3153.621094 1417.058594 C 3131.292969 1419.671875 3098.183594 1373.6875 3074.601562 1334.992188 C 3096.679688 1541.890625 3048.671875 1768.933594 3024.800781 1816.6875 C 3022.417969 1821.449219 3016.835938 1832.601562 2924.351562 1838.105469 C 2906.234375 1839.183594 2885.132812 1839.898438 2863.847656 1839.898438 "/>
<path style=" stroke:none;fill-rule:nonzero;fill:rgb(59.607846%,28.235295%,58.823532%);fill-opacity:1;" d="M 1722.257812 1262.921875 C 1701.8125 1278.65625 1692.0625 1297.105469 1691.808594 1310.859375 C 1691.738281 1315.027344 1692.527344 1322.433594 1698.6875 1325.265625 C 1706.933594 1329.058594 1724.644531 1325.15625 1749.695312 1302.855469 C 1777.007812 1278.550781 1775.175781 1268.195312 1774.882812 1267.09375 C 1774.136719 1264.359375 1769.714844 1261.929688 1763.054688 1260.601562 C 1752.710938 1258.53125 1737.984375 1259.375 1722.257812 1262.921875 M 1962.710938 1717.628906 C 1935.089844 1717.628906 1904.410156 1710.195312 1870.191406 1692.355469 C 1762.625 1636.269531 1616.808594 1548.890625 1592.523438 1438.054688 C 1581.785156 1389.042969 1595.523438 1339.414062 1633.355469 1290.542969 C 1651.042969 1267.703125 1682.519531 1251.203125 1713.019531 1243.429688 C 1721.949219 1237.082031 1732.492188 1231.179688 1744.832031 1226.039062 C 1751.285156 1223.351562 1778.828125 1214.492188 1819.398438 1209.199219 C 1849.902344 1205.222656 1881.773438 1202.652344 1912.59375 1200.167969 C 2039.707031 1189.914062 2149.480469 1181.066406 2150.621094 1087.425781 C 2150.859375 1067.902344 2136.410156 1048.402344 2110.976562 1033.917969 C 2075.019531 1013.441406 2015.910156 1003.894531 1971.039062 1031.269531 C 1933.324219 1054.273438 1914.777344 1099.015625 1917.386719 1160.65625 C 1917.632812 1166.449219 1913.132812 1171.351562 1907.332031 1171.59375 C 1901.65625 1171.898438 1896.640625 1167.339844 1896.394531 1161.542969 C 1892.660156 1073.4375 1928.972656 1032.320312 1960.097656 1013.332031 C 2012.242188 981.527344 2080.257812 992.238281 2121.375 1015.660156 C 2153.648438 1034.039062 2171.96875 1060.285156 2171.632812 1087.683594 C 2170.261719 1200.472656 2040.128906 1210.960938 1914.285156 1221.109375 C 1883.714844 1223.574219 1852.105469 1226.125 1822.113281 1230.035156 C 1799.582031 1232.976562 1781.273438 1237.105469 1769.054688 1240.402344 C 1787.890625 1244.761719 1793.492188 1255.46875 1795.15625 1261.589844 C 1799.417969 1277.269531 1789.117188 1295.902344 1763.664062 1318.554688 C 1725.171875 1352.808594 1700.9375 1349.421875 1689.917969 1344.363281 C 1677.664062 1338.730469 1670.515625 1326.066406 1670.800781 1310.480469 C 1670.96875 1301.121094 1673.847656 1290.054688 1680.230469 1278.691406 C 1668.253906 1285.316406 1657.578125 1293.585938 1649.972656 1303.410156 C 1615.652344 1347.738281 1603.578125 1390.3125 1613.050781 1433.554688 C 1635.449219 1535.789062 1776.082031 1619.585938 1879.910156 1673.722656 C 2008.082031 1740.546875 2077.164062 1647.828125 2132.679688 1573.324219 C 2160.652344 1535.785156 2182.746094 1506.140625 2208.792969 1501.542969 C 2305.957031 1484.398438 2341.578125 1413.796875 2354.164062 1373.238281 C 2377.667969 1297.488281 2358.914062 1210.039062 2308.554688 1160.578125 C 2304.414062 1156.511719 2304.351562 1149.859375 2308.421875 1145.71875 C 2312.488281 1141.574219 2319.132812 1141.523438 2323.28125 1145.585938 C 2379.019531 1200.335938 2399.976562 1296.507812 2374.234375 1379.46875 C 2350.402344 1456.261719 2291.433594 1508.296875 2212.449219 1522.234375 C 2194.613281 1525.378906 2172.71875 1554.769531 2149.535156 1585.878906 C 2108.453125 1641.007812 2051.359375 1717.625 1962.710938 1717.628906 "/>
<path style=" stroke:none;fill-rule:nonzero;fill:rgb(59.607846%,28.235295%,58.823532%);fill-opacity:1;" d="M 1408.269531 2378.328125 L 1408.269531 2423.835938 L 1418.757812 2423.835938 C 1428.867188 2423.835938 1436.429688 2421.847656 1441.433594 2417.863281 C 1446.4375 2413.886719 1448.9375 2407.425781 1448.9375 2398.5 C 1448.9375 2391.613281 1446.835938 2386.074219 1442.644531 2381.878906 C 1438.449219 2377.679688 1432.636719 2375.578125 1425.210938 2375.578125 L 1411.171875 2375.578125 C 1409.238281 2375.578125 1408.269531 2376.5 1408.269531 2378.328125 M 1474.113281 2397.691406 C 1474.113281 2406.621094 1471.53125 2414.101562 1466.363281 2420.121094 C 1461.199219 2426.148438 1452.972656 2430.1875 1441.671875 2432.226562 L 1479.117188 2475.160156 C 1481.699219 2478.171875 1484.765625 2480.457031 1488.316406 2482.015625 C 1491.867188 2483.578125 1495.46875 2484.359375 1499.128906 2484.359375 L 1499.128906 2490.808594 L 1460.878906 2490.808594 L 1420.855469 2441.75 C 1419.132812 2439.597656 1417.519531 2437.933594 1416.015625 2436.746094 C 1414.507812 2435.5625 1413.136719 2434.726562 1411.898438 2434.246094 C 1410.660156 2433.757812 1409.453125 2433.523438 1408.269531 2433.523438 L 1408.269531 2465.148438 C 1408.269531 2470.421875 1408.804688 2474.457031 1409.886719 2477.253906 C 1410.957031 2480.054688 1413.164062 2481.933594 1416.496094 2482.902344 C 1419.832031 2483.871094 1424.890625 2484.359375 1431.667969 2484.359375 L 1431.667969 2490.808594 L 1367.601562 2490.808594 L 1367.601562 2484.359375 C 1372.328125 2484.359375 1375.914062 2483.871094 1378.332031 2482.902344 C 1380.75 2481.933594 1382.394531 2480.132812 1383.253906 2477.5 C 1384.113281 2474.863281 1384.542969 2471.015625 1384.542969 2465.957031 L 1384.542969 2391.398438 C 1384.542969 2386.339844 1384.191406 2382.546875 1383.492188 2380.019531 C 1382.796875 2377.492188 1381.367188 2375.742188 1379.21875 2374.773438 C 1377.066406 2373.804688 1373.785156 2373.21875 1369.375 2373 L 1369.375 2366.542969 L 1425.210938 2366.542969 C 1440.703125 2366.542969 1452.730469 2369.285156 1461.285156 2374.773438 C 1469.835938 2380.261719 1474.113281 2387.902344 1474.113281 2397.691406 "/>
<path style=" stroke:none;fill-rule:nonzero;fill:rgb(59.607846%,28.235295%,58.823532%);fill-opacity:1;" d="M 1720.550781 2381.070312 L 1720.550781 2422.0625 C 1727.433594 2422.0625 1732.972656 2421.847656 1737.171875 2421.417969 C 1741.371094 2420.984375 1744.621094 2420.101562 1746.9375 2418.753906 C 1749.25 2417.410156 1750.914062 2415.417969 1751.941406 2412.78125 C 1752.957031 2410.144531 1753.6875 2406.675781 1754.117188 2402.371094 L 1760.089844 2402.371094 L 1760.089844 2449.65625 L 1754.117188 2449.65625 C 1753.472656 2445.25 1752.582031 2441.75 1751.453125 2439.164062 C 1750.328125 2436.585938 1748.628906 2434.675781 1746.375 2433.4375 C 1744.109375 2432.207031 1740.9375 2431.371094 1736.851562 2430.9375 C 1732.757812 2430.503906 1727.332031 2430.292969 1720.550781 2430.292969 L 1720.550781 2463.539062 C 1720.550781 2468.160156 1721.410156 2471.820312 1723.132812 2474.507812 C 1724.855469 2477.203125 1727.734375 2479.109375 1731.765625 2480.242188 C 1735.800781 2481.375 1741.257812 2481.9375 1748.144531 2481.9375 C 1756.324219 2481.9375 1762.859375 2481.128906 1767.753906 2479.511719 C 1772.648438 2477.902344 1776.441406 2475.050781 1779.132812 2470.960938 C 1781.824219 2466.875 1783.917969 2461.171875 1785.425781 2453.851562 L 1791.882812 2453.851562 L 1789.296875 2490.808594 L 1679.882812 2490.808594 L 1679.882812 2484.355469 C 1684.722656 2484.140625 1688.355469 2483.578125 1690.773438 2482.660156 C 1693.195312 2481.75 1694.804688 2479.996094 1695.613281 2477.414062 C 1696.421875 2474.832031 1696.828125 2471.011719 1696.828125 2465.957031 L 1696.828125 2391.398438 C 1696.828125 2386.339844 1696.449219 2382.546875 1695.695312 2380.019531 C 1694.941406 2377.492188 1693.492188 2375.746094 1691.339844 2374.773438 C 1689.1875 2373.804688 1685.953125 2373.21875 1681.660156 2372.996094 L 1681.660156 2366.546875 L 1783.648438 2366.546875 L 1784.78125 2398.175781 L 1777.84375 2398.175781 C 1776.976562 2392.148438 1775.417969 2387.472656 1773.164062 2384.132812 C 1770.902344 2380.800781 1767.539062 2378.460938 1763.074219 2377.117188 C 1758.609375 2375.773438 1752.554688 2375.097656 1744.917969 2375.097656 L 1726.683594 2375.097656 C 1723.992188 2375.097656 1722.296875 2375.445312 1721.597656 2376.144531 C 1720.894531 2376.84375 1720.550781 2378.484375 1720.550781 2381.070312 "/>
<path style=" stroke:none;fill-rule:nonzero;fill:rgb(59.607846%,28.235295%,58.823532%);fill-opacity:1;" d="M 2086.410156 2492.425781 L 2014.914062 2390.589844 L 2014.273438 2390.589844 L 2014.273438 2459.984375 C 2014.273438 2467.085938 2014.675781 2472.332031 2015.480469 2475.722656 C 2016.289062 2479.109375 2017.902344 2481.34375 2020.320312 2482.417969 C 2022.746094 2483.496094 2026.320312 2484.140625 2031.050781 2484.355469 L 2031.050781 2490.808594 L 1983.125 2490.808594 L 1983.125 2484.355469 C 1988.390625 2484.140625 1992.347656 2483.496094 1994.984375 2482.417969 C 1997.621094 2481.34375 1999.390625 2479.191406 2000.308594 2475.964844 C 2001.222656 2472.738281 2001.679688 2467.785156 2001.679688 2461.117188 L 2001.679688 2396.238281 C 2001.679688 2390.105469 2001.277344 2385.425781 2000.472656 2382.195312 C 1999.664062 2378.96875 1998.046875 2376.683594 1995.632812 2375.339844 C 1993.207031 2373.996094 1989.578125 2373.21875 1984.738281 2372.996094 L 1984.738281 2366.546875 L 2029.765625 2366.546875 L 2094.800781 2459.824219 L 2095.449219 2459.824219 L 2095.449219 2397.371094 C 2095.449219 2390.265625 2095.042969 2385.019531 2094.238281 2381.632812 C 2093.429688 2378.246094 2091.84375 2375.984375 2089.476562 2374.851562 C 2087.109375 2373.726562 2083.503906 2373.105469 2078.660156 2372.996094 L 2078.660156 2366.546875 L 2126.597656 2366.546875 L 2126.597656 2372.996094 C 2121.320312 2373.105469 2117.367188 2373.726562 2114.734375 2374.851562 C 2112.097656 2375.984375 2110.320312 2378.160156 2109.410156 2381.390625 C 2108.492188 2384.621094 2108.035156 2389.570312 2108.035156 2396.238281 L 2108.035156 2492.425781 Z M 2086.410156 2492.425781 "/>
<path style=" stroke:none;fill-rule:nonzero;fill:rgb(59.607846%,28.235295%,58.823532%);fill-opacity:1;" d="M 2440.652344 2366.542969 L 2442.269531 2402.046875 L 2435.328125 2402.046875 C 2434.890625 2394.949219 2433.632812 2389.4375 2431.535156 2385.503906 C 2429.433594 2381.578125 2426.476562 2378.835938 2422.65625 2377.277344 C 2418.835938 2375.714844 2414.023438 2374.9375 2408.210938 2374.9375 C 2402.726562 2374.9375 2398.578125 2375.070312 2395.789062 2375.339844 C 2392.984375 2375.609375 2391.160156 2376.121094 2390.296875 2376.871094 C 2389.4375 2377.625 2389.007812 2378.648438 2389.007812 2379.9375 L 2389.007812 2464.503906 C 2389.007812 2469.132812 2389.492188 2472.871094 2390.460938 2475.71875 C 2391.429688 2478.570312 2393.472656 2480.671875 2396.59375 2482.015625 C 2399.710938 2483.359375 2404.449219 2484.140625 2410.796875 2484.355469 L 2410.796875 2490.8125 L 2343.175781 2490.8125 L 2343.175781 2484.355469 C 2349.628906 2484.140625 2354.414062 2483.359375 2357.535156 2482.015625 C 2360.65625 2480.671875 2362.726562 2478.570312 2363.753906 2475.71875 C 2364.773438 2472.871094 2365.285156 2469.132812 2365.285156 2464.503906 L 2365.285156 2379.9375 C 2365.285156 2378.648438 2364.90625 2377.625 2364.152344 2376.871094 C 2363.398438 2376.121094 2361.839844 2375.609375 2359.476562 2375.339844 C 2357.105469 2375.070312 2353.503906 2374.9375 2348.660156 2374.9375 C 2344.789062 2374.9375 2341.074219 2375.152344 2337.523438 2375.578125 C 2333.976562 2376.011719 2330.851562 2377.058594 2328.164062 2378.726562 C 2325.476562 2380.398438 2323.324219 2383.058594 2321.710938 2386.714844 C 2320.097656 2390.375 2319.179688 2395.488281 2318.96875 2402.046875 L 2312.671875 2402.046875 L 2314.285156 2366.542969 Z M 2440.652344 2366.542969 "/>
<path style=" stroke:none;fill-rule:nonzero;fill:rgb(59.607846%,28.235295%,58.823532%);fill-opacity:1;" d="M 2651.585938 2443.523438 L 2689.996094 2443.523438 L 2671.4375 2394.625 L 2670.789062 2394.625 Z M 2610.59375 2490.8125 L 2610.59375 2484.355469 C 2615.761719 2483.816406 2619.683594 2482.660156 2622.371094 2480.882812 C 2625.0625 2479.113281 2627.320312 2475.90625 2629.152344 2471.28125 L 2671.597656 2364.929688 L 2683.539062 2364.929688 L 2722.113281 2459.175781 C 2724.371094 2464.667969 2726.308594 2468.996094 2727.921875 2472.171875 C 2729.535156 2475.34375 2731.199219 2477.738281 2732.921875 2479.351562 C 2734.640625 2480.96875 2736.660156 2482.097656 2738.976562 2482.742188 C 2741.289062 2483.382812 2744.273438 2483.871094 2747.933594 2484.191406 L 2747.933594 2490.8125 L 2686.929688 2490.8125 L 2686.929688 2484.191406 C 2692.09375 2483.980469 2695.804688 2483.445312 2698.066406 2482.578125 C 2700.324219 2481.71875 2701.453125 2479.996094 2701.453125 2477.414062 C 2701.453125 2475.90625 2701.074219 2473.945312 2700.324219 2471.523438 C 2699.570312 2469.105469 2698.546875 2466.226562 2697.257812 2462.890625 L 2693.542969 2453.207031 L 2647.871094 2453.207031 C 2645.292969 2459.015625 2643.378906 2463.859375 2642.144531 2467.730469 C 2640.910156 2471.609375 2640.289062 2474.671875 2640.289062 2476.933594 C 2640.289062 2480.160156 2641.5 2482.203125 2643.921875 2483.0625 C 2646.339844 2483.925781 2649.96875 2484.355469 2654.8125 2484.355469 L 2654.8125 2490.8125 Z M 2610.59375 2490.8125 "/>
<path style=" stroke:none;fill-rule:nonzero;fill:rgb(59.607846%,28.235295%,58.823532%);fill-opacity:1;" d="M 2929.652344 2490.8125 L 2929.652344 2484.359375 C 2934.492188 2484.144531 2938.125 2483.578125 2940.542969 2482.660156 C 2942.964844 2481.746094 2944.574219 2479.996094 2945.382812 2477.414062 C 2946.191406 2474.832031 2946.597656 2471.015625 2946.597656 2465.953125 L 2946.597656 2391.398438 C 2946.597656 2386.339844 2946.21875 2382.546875 2945.46875 2380.019531 C 2944.710938 2377.492188 2943.261719 2375.742188 2941.109375 2374.769531 C 2938.957031 2373.804688 2935.722656 2373.214844 2931.429688 2373 L 2931.429688 2366.542969 L 2987.105469 2366.542969 L 2987.105469 2373 C 2982.265625 2373.105469 2978.65625 2373.671875 2976.292969 2374.695312 C 2973.925781 2375.714844 2972.339844 2377.574219 2971.53125 2380.261719 C 2970.722656 2382.949219 2970.320312 2387.039062 2970.320312 2392.527344 L 2970.320312 2460.148438 C 2970.320312 2466.175781 2971.207031 2470.746094 2972.980469 2473.863281 C 2974.757812 2476.988281 2977.769531 2479.109375 2982.019531 2480.238281 C 2986.269531 2481.371094 2992.109375 2481.933594 2999.53125 2481.933594 C 3007.816406 2481.933594 3014.402344 2481.183594 3019.300781 2479.675781 C 3024.195312 2478.171875 3027.960938 2475.425781 3030.597656 2471.445312 C 3033.234375 2467.464844 3035.355469 2461.710938 3036.972656 2454.179688 L 3043.429688 2454.179688 L 3040.847656 2490.8125 Z M 2929.652344 2490.8125 "/>
<path style=" stroke:none;fill-rule:nonzero;fill:rgb(59.607846%,28.235295%,58.823532%);fill-opacity:1;" d="M 3237.738281 2490.8125 L 3235.316406 2449.65625 L 3241.609375 2449.65625 C 3243.117188 2459.773438 3247.234375 2467.785156 3253.957031 2473.703125 C 3260.679688 2479.621094 3268.886719 2482.578125 3278.566406 2482.578125 C 3286.636719 2482.578125 3293.144531 2480.726562 3298.097656 2477.011719 C 3303.046875 2473.296875 3305.519531 2468.488281 3305.519531 2462.566406 C 3305.519531 2459.125 3304.738281 2456.21875 3303.175781 2453.855469 C 3301.617188 2451.492188 3298.660156 2449.148438 3294.300781 2446.832031 C 3289.945312 2444.519531 3283.570312 2441.804688 3275.175781 2438.683594 C 3266.894531 2435.453125 3260.007812 2431.90625 3254.519531 2428.03125 C 3249.03125 2424.160156 3244.945312 2419.804688 3242.257812 2414.957031 C 3239.566406 2410.113281 3238.222656 2404.847656 3238.222656 2399.144531 C 3238.222656 2392.367188 3239.917969 2386.421875 3243.304688 2381.308594 C 3246.691406 2376.203125 3251.375 2372.191406 3257.34375 2369.285156 C 3263.316406 2366.382812 3270.230469 2364.929688 3278.085938 2364.929688 C 3288.734375 2364.929688 3298.683594 2368.375 3307.9375 2375.257812 L 3310.84375 2367.191406 L 3314.71875 2367.191406 L 3316.492188 2402.046875 L 3310.203125 2402.046875 C 3307.617188 2393.226562 3303.582031 2386.476562 3298.097656 2381.792969 C 3292.609375 2377.113281 3286.257812 2374.769531 3279.054688 2374.769531 C 3272.488281 2374.769531 3267.109375 2376.414062 3262.914062 2379.699219 C 3258.71875 2382.984375 3256.621094 2387.203125 3256.621094 2392.367188 C 3256.621094 2395.378906 3257.34375 2397.988281 3258.796875 2400.191406 C 3260.253906 2402.398438 3262.96875 2404.546875 3266.949219 2406.648438 C 3270.925781 2408.742188 3276.628906 2411.195312 3284.058594 2413.992188 C 3294.0625 2417.757812 3302.179688 2421.714844 3308.425781 2425.851562 C 3314.660156 2430 3319.210938 2434.457031 3322.0625 2439.25 C 3324.910156 2444.039062 3326.335938 2449.441406 3326.335938 2455.464844 C 3326.335938 2462.679688 3324.292969 2469.078125 3320.207031 2474.671875 C 3316.117188 2480.265625 3310.464844 2484.621094 3303.261719 2487.742188 C 3296.050781 2490.863281 3287.714844 2492.425781 3278.246094 2492.425781 C 3271.894531 2492.425781 3266.085938 2491.535156 3260.816406 2489.761719 C 3255.542969 2487.988281 3250.21875 2485.109375 3244.835938 2481.125 L 3241.609375 2490.8125 Z M 3237.738281 2490.8125 "/>
</g>
</svg>
